<?xml version="1.0" encoding="utf-8"?>
<!-- Generator: Adobe Illustrator 19.0.1, SVG Export Plug-In . SVG Version: 6.00 Build 0)  -->
<svg version="1.1" id="Слой_1" xmlns="http://www.w3.org/2000/svg" xmlns:xlink="http://www.w3.org/1999/xlink" x="0px" y="0px"
	 viewBox="-289 414.9 16 12" style="enable-background:new -289 414.9 16 12;" xml:space="preserve">
<style type="text/css">
	.st0{fill:#757575;}
</style>
<path class="st0" d="M-274.5,414.9h-13c-0.8,0-1.5,0.6-1.5,1.4v8.4c0,0.8,0.7,1.4,1.5,1.4h13c0.8,0,1.5-0.6,1.5-1.4v-8.4
	C-273,415.5-273.7,414.9-274.5,414.9L-274.5,414.9z M-274.5,415.8c0.1,0,0.1,0,0.2,0l-6.7,5.4l-6.7-5.4c0.1,0,0.1,0,0.2,0H-274.5z
	 M-274.5,425.2h-13c-0.3,0-0.5-0.2-0.5-0.5v-7.8l6.7,5.4c0.1,0.1,0.2,0.1,0.3,0.1s0.2,0,0.3-0.1l6.7-5.4v7.8
	C-274,424.9-274.2,425.2-274.5,425.2L-274.5,425.2z"/>
</svg>
